<svg xmlns="http://www.w3.org/2000/svg" width="512" height="512" viewBox="0 0 512 512" version="1.1">
	<path d="M 243 22.661 C 211.490 25.726, 191.315 30.666, 166.569 41.373 C 112.026 64.974, 70.033 103.808, 45.730 153.120 C 34.586 175.733, 27.751 198.108, 23.925 224.500 C 22.048 237.450, 21.825 242.302, 22.290 260 C 22.611 272.178, 23.492 284.153, 24.460 289.500 C 32.171 332.076, 52.639 372.390, 82.477 403.770 C 118.422 441.574, 162.799 464.377, 218.500 473.666 C 234.132 476.272, 276.737 476.271, 292.327 473.663 C 333.777 466.731, 370.380 451.893, 400.279 429.905 C 413.576 420.125, 434.596 399.727, 444.787 386.712 C 483.642 337.092, 497.938 280.843, 487.411 219 C 477.697 161.932, 449.505 112.746, 406.605 78.025 C 376.864 53.953, 334.329 33.298, 300.500 26.500 C 282.264 22.836, 257.912 21.210, 243 22.661 M 225.500 42.023 C 161.931 51.801, 103.379 89.719, 70.815 142.197 C 63.043 154.722, 53.694 174.617, 49.156 188.288 C 32.691 237.892, 35.134 288.118, 56.329 335.758 C 84.930 400.044, 147.836 446.052, 223 457.658 C 239.255 460.168, 272.406 460.166, 287.500 457.654 C 312.803 453.443, 341.694 444.288, 361.404 434.234 C 410.986 408.941, 447.752 366.728, 464.857 315.452 C 471.394 295.857, 473.060 286.160, 473.698 264 C 474.343 241.575, 472.779 225.704, 468.002 206.219 C 452.014 140.993, 413.246 93.563, 350.073 61.942 C 329.821 51.804, 307.876 44.845, 285.838 41.573 C 271.020 39.373, 241.289 39.595, 225.500 42.023 M 248 65.151 C 238.324 65.948, 227.922 68.904, 222.913 72.280 C 220.130 74.155, 219.500 75.218, 219.500 78.040 C 219.500 81.197, 219.967 81.750, 224.829 84.356 C 232.412 88.419, 233.992 91.494, 233.996 102.203 C 234 111.254, 232.865 115.444, 230.115 116.524 C 229.227 116.873, 223.325 118.725, 217 120.640 C 165.222 136.312, 127.162 179.897, 118.473 233.470 C 116.515 245.537, 116.578 269.155, 118.598 281.074 C 125.879 324.032, 154.338 363.434, 191.435 381.918 C 202.972 387.667, 213.002 391.168, 226.817 394.267 C 240.132 397.254, 272.073 397.453, 285 394.629 C 315.097 388.054, 339.734 374.672, 358.776 354.555 C 394.686 316.619, 404.953 265.181, 387.331 211.500 C 378.096 183.369, 357.382 155.689, 333.211 139.181 C 321.411 131.122, 304.059 122.832, 292.383 119.677 C 277.607 115.683, 277.500 115.548, 277.500 100.822 C 277.500 90.789, 278.935 87.925, 285.557 84.741 C 287.726 83.698, 290.175 82.496, 291 82.071 C 293.515 80.775, 293.398 75.721, 290.797 73.294 C 284.193 67.131, 265.993 63.668, 248 65.151 M 171 93.369 C 149.905 102.979, 136.239 112.652, 120.767 128.924 C 108.019 142.332, 95.764 160.877, 96.754 165.264 C 97.266 167.531, 102.550 170.278, 104.941 169.519 C 105.953 169.197, 109.386 164.826, 112.570 159.804 C 129.068 133.779, 151.577 115.033, 179.527 104.039 C 184.651 102.024, 189.554 99.785, 190.422 99.065 C 192.437 97.392, 192.448 93.084, 190.443 90.223 C 188.064 86.825, 183.879 87.502, 171 93.369 M 383.657 106.055 C 378.858 109.830, 379.926 112.331, 390.626 122.373 C 413.494 143.835, 428.913 171.129, 437.506 205.355 C 441.731 222.180, 442.998 232.864, 442.979 251.500 C 442.950 281.005, 436.845 305.887, 423.053 332.719 C 409.320 359.438, 388.808 381.745, 362.715 398.341 C 359.533 400.365, 356.672 402.692, 356.357 403.512 C 355.274 406.334, 356.959 409.663, 360.409 411.521 L 363.866 413.382 369.046 410.162 C 376.173 405.732, 387.210 397.334, 395.091 390.345 C 422.974 365.618, 443.718 329.669, 451.839 292 C 464.135 234.966, 447.086 165.766, 410.790 125.390 C 401.647 115.218, 391.148 105.476, 388.407 104.619 C 387.029 104.188, 385.407 104.678, 383.657 106.055 M 246.500 135.130 C 219.121 136.856, 191.962 148.643, 172.273 167.346 C 147.967 190.434, 133.779 223.369, 133.650 257 C 133.449 309.279, 168.304 357.981, 217.544 374.223 C 232.555 379.175, 241.245 380.506, 258 380.422 C 276.097 380.331, 285.734 378.509, 302.240 372.055 C 325.276 363.049, 344.711 347.619, 358.036 327.759 C 371.849 307.171, 378 287.084, 378 262.566 C 378 247.295, 375.949 234.851, 370.931 219.680 C 358.615 182.443, 335.127 156.964, 300.260 143.020 C 283.537 136.333, 266.679 133.858, 246.500 135.130 M 237.951 142.481 C 217.764 146.314, 197.347 156.394, 183.078 169.569 C 140.455 208.927, 133.134 271.899, 165.521 320.574 C 180.213 342.656, 202.981 358.294, 230.361 365.109 C 241.086 367.779, 263.175 368.733, 274.864 367.031 C 336.726 358.023, 377.904 302.624, 368.545 241 C 365.446 220.590, 358.375 203.213, 347.139 188.395 C 330.097 165.918, 307.866 151.168, 280 143.851 C 269.947 141.211, 248.344 140.507, 237.951 142.481 M 241.460 153.448 C 202.506 159.502, 170.751 188.990, 160.319 228.794 C 157.246 240.519, 156.074 261.861, 157.921 272.468 C 163.526 304.656, 182.350 331.582, 208.427 344.715 C 238.631 359.927, 270.056 360.970, 300.500 347.773 C 335.633 332.542, 358.004 297.474, 357.999 257.640 C 357.995 227.527, 346.914 201.545, 325.263 180.881 C 308.584 164.962, 289.513 155.882, 266.769 153.030 C 256.658 151.762, 251.784 151.843, 241.460 153.448 M 255.122 159.353 C 254.308 160.334, 254.030 165.209, 254.222 175.136 C 254.485 188.741, 254.606 189.500, 256.500 189.500 C 258.414 189.500, 258.500 188.833, 258.500 174.083 C 258.500 158.704, 257.885 156.023, 255.122 159.353 M 217.608 172.881 C 215.221 175.518, 215.801 177.732, 221.696 188.491 C 226.352 196.988, 229 199.186, 229 194.552 C 229 191.322, 223.261 175.545, 221.128 172.910 L 219.453 170.842 217.608 172.881 M 294.056 173.921 C 291.834 177.042, 285.589 190.019, 284.514 193.750 C 283.994 195.555, 284.265 196, 285.885 196 C 288.028 196, 291.229 191.832, 296.817 181.765 C 300.343 175.412, 300.799 172.521, 298.418 171.607 C 296.214 170.761, 296.362 170.683, 294.056 173.921 M 246.581 192.993 C 229.995 195.992, 214.539 206.699, 204.866 221.890 C 201.020 227.930, 197.141 240.072, 196.246 248.869 L 195.500 256.209 180.909 256.060 C 169.027 255.939, 166.087 256.190, 165.073 257.412 C 162.301 260.752, 164.785 261.318, 179.200 260.630 C 186.845 260.265, 193.603 259.862, 194.217 259.733 C 194.852 259.601, 196.139 262.949, 197.200 267.492 C 200.126 280.025, 205.201 289.260, 213.972 298.010 C 226.115 310.124, 240.315 316, 257.450 316 C 277.548 316, 296.932 305.488, 307.913 288.633 C 313.395 280.219, 315.617 274.200, 317.067 263.834 C 319.403 247.137, 315.308 231.840, 304.753 217.833 C 293.142 202.424, 276.968 193.371, 259.500 192.502 C 255.100 192.283, 249.286 192.504, 246.581 192.993 M 178.667 203.667 C 176.702 205.632, 178.802 208.086, 187.250 213.695 C 201.503 223.159, 204 224.102, 204 220.020 C 204 217.760, 199.932 214.137, 190.622 208.104 C 183.148 203.262, 180.175 202.158, 178.667 203.667 M 325.500 206.745 C 311.700 216.683, 310 218.143, 310 220.064 C 310 223.964, 312.961 223.072, 323.670 215.945 C 336.918 207.128, 336.343 207.655, 335.532 205.101 C 334.560 202.037, 331.295 202.572, 325.500 206.745 M 243.798 207.931 C 232.479 211.550, 223.941 217.955, 217.808 227.428 C 205.519 246.411, 207.803 271.338, 223.338 287.763 C 232.607 297.564, 243.247 302.094, 257.070 302.124 C 281.397 302.177, 300.404 285.871, 304.157 261.726 C 306.395 247.334, 301.181 232.296, 290 220.897 C 277.156 207.803, 259.604 202.877, 243.798 207.931 M 248.500 240.426 C 235.106 248.486, 240.074 268.244, 255.877 269.762 C 261.594 270.312, 265.352 268.641, 269.802 263.572 C 275.539 257.038, 274.949 248.796, 268.328 242.983 C 261.837 237.284, 255.153 236.422, 248.500 240.426 M 253.571 250.571 C 251.465 252.678, 251.592 254.592, 254 257 C 256.408 259.408, 258.322 259.535, 260.429 257.429 C 262.601 255.256, 262.406 251.288, 260.066 250.035 C 257.353 248.583, 255.398 248.745, 253.571 250.571 M 319 256.500 L 319 259 329.750 259.011 C 335.663 259.017, 342.180 259.300, 344.232 259.639 C 347.239 260.136, 348.097 259.912, 348.645 258.483 C 349.999 254.955, 346.520 254, 332.309 254 L 319 254 319 256.500 M 308.183 292.078 C 306.449 294.856, 307.152 295.597, 318.481 302.936 C 330.002 310.399, 332.418 311.406, 334.061 309.427 C 335.034 308.254, 334.915 307.564, 333.463 305.959 C 331.381 303.658, 311.569 290, 310.314 290 C 309.856 290, 308.897 290.935, 308.183 292.078 M 194.436 295.620 C 183.965 302.596, 179 306.921, 179 309.067 C 179 311.887, 181.838 311.488, 187.554 307.865 C 191.680 305.249, 202.422 297.457, 205.283 295.005 C 206.546 293.922, 204.938 291, 203.079 291 C 202.140 291, 198.251 293.079, 194.436 295.620 M 226.266 316.217 C 224.719 318.135, 217.955 331.875, 216.433 336.191 C 215.278 339.464, 215.309 340.166, 216.670 341.527 C 218.094 342.951, 218.404 342.944, 220.047 341.458 C 222.594 339.152, 230.252 320.804, 229.841 317.990 C 229.440 315.248, 227.730 314.400, 226.266 316.217 M 288.128 318.167 C 286.904 320.127, 287.248 321.273, 291.635 329.846 C 296.737 339.815, 299.050 342.350, 301.140 340.260 C 302.054 339.346, 302.066 338.174, 301.189 335.282 C 299.819 330.763, 291.923 316.759, 290.492 316.311 C 289.938 316.137, 288.874 316.972, 288.128 318.167 M 254.395 321.564 C 253.738 324.180, 254.702 345.075, 255.626 348.250 C 256.260 350.431, 258.581 350.535, 259.393 348.418 C 260.565 345.364, 260.063 321.463, 258.800 320.200 C 256.862 318.262, 255.085 318.812, 254.395 321.564 M 348.908 388.420 C 347.584 389.134, 343.350 391.659, 339.500 394.031 C 321.884 404.886, 298.052 413.226, 276.500 416.077 C 257.747 418.558, 230.451 415.064, 209.174 407.459 C 200.951 404.520, 199.312 404.223, 197.142 405.278 C 192.480 407.545, 192.544 414.344, 197.255 417.431 C 200.686 419.679, 228.854 426.620, 240.335 428.046 C 255.413 429.920, 281.816 428.778, 295 425.683 C 313.995 421.223, 330.569 414.718, 348.280 404.770 C 358.658 398.941, 361.105 396.058, 358.941 392.207 C 356.890 388.559, 352.046 386.730, 348.908 388.420" stroke="none" fill="black" fill-rule="evenodd"/>
</svg>